<svg xmlns="http://www.w3.org/2000/svg" viewBox="0 0 604 206.667"><path fill="#FFF" stroke="#FFF" stroke-width="4" stroke-miterlimit="10" d="M2.381 104.058L99.783 6.446l96.932 96.933-18.831 18.831h423.784v2.18H175.704l-76.496 76.496-83.524-83.523 84.482-84.482 68.966 68.967-13.6 13.6 6.762 6.763H174.8l18.832-18.831L99.783 9.529 3.698 105.374m15.069 11.987l80.441 80.44 73.414-73.413h-11.229l-7.402-7.401-55.548 55.548-55.558-55.558 57.091-57.09 54.016 54.017 12.06-12.058-65.884-65.884-81.401 81.399zm27.2-.383l52.475 52.475 54.007-54.007L99.975 62.97l-54.008 54.008z"/><g fill="#FFF" stroke="#FFF" stroke-miterlimit="10"><path d="M220.278 101.81V2.789h9.763v90.374h57.181v8.647h-66.944zM337.986 102.507c-6.882 0-13.18-1.417-18.897-4.253-5.718-2.835-10.624-6.601-14.714-11.297-4.092-4.694-7.252-10.063-9.484-16.108-2.231-6.043-3.347-12.225-3.347-18.549 0-6.601 1.186-12.922 3.557-18.968 2.371-6.042 5.648-11.388 9.832-16.039 4.184-4.648 9.111-8.344 14.784-11.087 5.67-2.741 11.807-4.114 18.41-4.114 6.879 0 13.179 1.464 18.897 4.393 5.718 2.929 10.6 6.764 14.644 11.506 4.044 4.742 7.182 10.111 9.414 16.108s3.347 12.112 3.347 18.34c0 6.603-1.185 12.925-3.556 18.967-2.371 6.045-5.626 11.367-9.763 15.969-4.138 4.602-9.043 8.276-14.713 11.018-5.673 2.743-11.81 4.114-18.411 4.114zm-36.679-50.208c0 5.393.883 10.578 2.65 15.55 1.765 4.975 4.275 9.392 7.531 13.249a36.988 36.988 0 0 0 11.576 9.205c4.463 2.279 9.436 3.417 14.923 3.417 5.579 0 10.645-1.208 15.202-3.626 4.555-2.417 8.414-5.579 11.576-9.483 3.16-3.905 5.601-8.32 7.322-13.25 1.719-4.927 2.58-9.948 2.58-15.062 0-5.392-.907-10.576-2.72-15.551-1.813-4.973-4.348-9.366-7.601-13.179a37.504 37.504 0 0 0-11.576-9.135c-4.463-2.277-9.392-3.417-14.783-3.417-5.579 0-10.647 1.186-15.202 3.557-4.557 2.371-8.416 5.509-11.576 9.414-3.162 3.905-5.603 8.322-7.322 13.25-1.721 4.928-2.58 9.949-2.58 15.061zM470.897 87.305c-9.205 10.135-19.805 15.202-31.799 15.202-6.694 0-12.854-1.44-18.479-4.323a48.708 48.708 0 0 1-14.644-11.437c-4.138-4.742-7.37-10.111-9.693-16.108-2.325-5.997-3.487-12.156-3.487-18.479 0-6.601 1.138-12.922 3.417-18.967 2.277-6.043 5.461-11.367 9.554-15.969 4.09-4.603 8.926-8.274 14.504-11.018 5.579-2.741 11.667-4.114 18.27-4.114 4.833 0 9.25.536 13.249 1.604 3.997 1.07 7.553 2.558 10.668 4.463 3.115 1.907 5.811 4.184 8.09 6.834a42.533 42.533 0 0 1 5.787 8.716l-7.531 5.021c-3.254-6.137-7.484-10.646-12.69-13.528-5.208-2.881-11.112-4.323-17.712-4.323-5.487 0-10.438 1.164-14.853 3.486a35.79 35.79 0 0 0-11.297 9.274c-3.116 3.859-5.509 8.277-7.183 13.25a48.025 48.025 0 0 0-2.51 15.411c0 5.579.952 10.878 2.859 15.899 1.905 5.021 4.533 9.414 7.88 13.18s7.274 6.764 11.785 8.996c4.509 2.231 9.414 3.347 14.713 3.347 5.67 0 11.088-1.325 16.248-3.975 5.161-2.65 10.112-6.855 14.854-12.622V60.667H448.86v-7.531h30.265v48.674h-8.229V87.305zM495.72 101.81V2.789h9.763v99.021h-9.763z"/></g><path fill="#FFF" stroke="#FFF" stroke-miterlimit="10" d="M518.056 51.602c0-5.949 1.047-11.876 3.139-17.782 2.092-5.903 5.136-11.179 9.135-15.829 3.996-4.648 8.926-8.438 14.783-11.367s12.504-4.393 19.943-4.393c8.833 0 16.388 2 22.664 5.997 6.275 3.999 10.899 9.205 13.876 15.62l-7.67 4.742c-1.582-3.253-3.511-5.997-5.788-8.229-2.279-2.231-4.72-4.044-7.322-5.439a31.001 31.001 0 0 0-8.089-2.999c-2.789-.604-5.532-.907-8.229-.907-5.951 0-11.205 1.209-15.76 3.626-4.557 2.418-8.392 5.579-11.506 9.483-3.116 3.905-5.463 8.298-7.043 13.18-1.582 4.881-2.371 9.832-2.371 14.853 0 5.487.952 10.739 2.859 15.76 1.904 5.021 4.509 9.462 7.811 13.319a37.504 37.504 0 0 0 11.715 9.205c4.509 2.28 9.414 3.417 14.714 3.417 2.789 0 5.648-.349 8.577-1.046s5.764-1.813 8.507-3.347a35.823 35.823 0 0 0 7.602-5.718c2.322-2.277 4.275-5.042 5.857-8.298l8.089 4.184a30.302 30.302 0 0 1-6.694 9.833 44.036 44.036 0 0 1-9.623 7.183 47.937 47.937 0 0 1-11.228 4.463c-3.953 1.022-7.834 1.534-11.646 1.534-6.788 0-13.018-1.486-18.688-4.463-5.672-2.975-10.554-6.856-14.644-11.646-4.093-4.788-7.276-10.227-9.554-16.317-2.279-6.089-3.416-12.295-3.416-18.619z"/><g fill="#FFF" stroke="#FFF"><path d="M219.796 194.34v-41.18h5.22v41.18h-5.22zM264.397 157.8h-14.21v36.54h-5.22V157.8h-14.21v-4.64h33.64v4.64zM307.085 161.802c-.464-.541-1.083-1.063-1.856-1.566a16.627 16.627 0 0 0-2.61-1.363 18.433 18.433 0 0 0-3.161-.986 16.559 16.559 0 0 0-3.567-.377c-3.21 0-5.559.6-7.047 1.798-1.489 1.199-2.233 2.842-2.233 4.93 0 1.122.212 2.05.638 2.784.425.735 1.092 1.363 2.001 1.885.908.522 2.039.977 3.393 1.363 1.353.387 2.958.793 4.814 1.218 2.126.464 4.05.996 5.771 1.595 1.72.6 3.19 1.344 4.408 2.233 1.218.89 2.146 1.972 2.784 3.248.638 1.276.957 2.842.957 4.698 0 1.972-.387 3.683-1.16 5.133a10.293 10.293 0 0 1-3.161 3.596c-1.334.948-2.91 1.644-4.727 2.088-1.818.444-3.79.667-5.916.667-3.171 0-6.177-.493-9.019-1.479a25.201 25.201 0 0 1-7.743-4.321l2.494-4.408c.618.658 1.421 1.315 2.407 1.972.986.658 2.107 1.247 3.364 1.769 1.256.522 2.61.948 4.06 1.276 1.45.329 2.967.493 4.553.493 2.938 0 5.22-.522 6.844-1.566s2.436-2.61 2.436-4.698c0-1.16-.261-2.136-.783-2.929-.522-.792-1.286-1.479-2.291-2.059-1.006-.58-2.253-1.092-3.741-1.537a107.034 107.034 0 0 0-5.075-1.363c-2.088-.502-3.925-1.044-5.51-1.624-1.586-.58-2.91-1.276-3.973-2.088-1.064-.812-1.866-1.798-2.407-2.958-.542-1.16-.812-2.552-.812-4.176 0-1.972.367-3.712 1.102-5.22a10.945 10.945 0 0 1 3.074-3.828c1.314-1.044 2.88-1.827 4.698-2.349 1.817-.522 3.789-.783 5.916-.783 2.784 0 5.297.426 7.54 1.276 2.242.851 4.234 1.992 5.974 3.422l-2.436 4.234zM334.75 194.63c-2.9 0-5.539-.589-7.917-1.769-2.378-1.179-4.418-2.745-6.119-4.698-1.702-1.952-3.016-4.186-3.944-6.699a22.102 22.102 0 0 1-1.392-7.714c0-2.745.493-5.374 1.479-7.888.986-2.513 2.349-4.736 4.089-6.67a19.678 19.678 0 0 1 6.177-4.611c2.378-1.14 4.959-1.711 7.743-1.711 2.9 0 5.529.609 7.888 1.827a20.218 20.218 0 0 1 6.09 4.785 21.812 21.812 0 0 1 3.944 6.699 21.714 21.714 0 0 1 1.392 7.627c0 2.746-.493 5.375-1.479 7.888-.986 2.514-2.34 4.727-4.06 6.641a19.531 19.531 0 0 1-6.148 4.582c-2.377 1.141-4.958 1.711-7.743 1.711zm-14.093-20.88c0 2.088.338 4.109 1.015 6.061.676 1.953 1.633 3.683 2.871 5.191a13.89 13.89 0 0 0 4.466 3.596c1.74.89 3.673 1.334 5.8 1.334 2.204 0 4.176-.473 5.916-1.421a14.437 14.437 0 0 0 4.437-3.712 16.57 16.57 0 0 0 2.784-5.191c.638-1.933.957-3.886.957-5.858a18.4 18.4 0 0 0-1.015-6.061c-.677-1.952-1.644-3.673-2.9-5.162a14.542 14.542 0 0 0-4.466-3.567c-1.721-.889-3.625-1.334-5.713-1.334-2.204 0-4.176.464-5.916 1.392a14.273 14.273 0 0 0-4.437 3.654c-1.218 1.508-2.156 3.229-2.813 5.162a18.249 18.249 0 0 0-.986 5.916zM361.256 194.34v-41.18h5.22v36.54h22.968v4.64h-28.188zM410.44 189.932c2.397 0 4.388-.464 5.974-1.392 1.585-.928 2.851-2.136 3.799-3.625.947-1.488 1.614-3.19 2.001-5.104.386-1.914.58-3.857.58-5.829V153.16h5.22v20.822c0 2.784-.319 5.423-.957 7.917-.638 2.494-1.653 4.689-3.045 6.583-1.392 1.895-3.2 3.393-5.423 4.495-2.224 1.102-4.921 1.653-8.091 1.653-3.287 0-6.052-.58-8.294-1.74-2.243-1.16-4.051-2.697-5.423-4.611-1.373-1.914-2.359-4.118-2.958-6.612a32.735 32.735 0 0 1-.899-7.685V153.16h5.22v20.822c0 2.05.203 4.031.609 5.945.406 1.914 1.082 3.606 2.03 5.075.947 1.47 2.204 2.659 3.77 3.567 1.566.909 3.528 1.363 5.887 1.363zM466.816 157.8h-14.21v36.54h-5.22V157.8h-14.21v-4.64h33.64v4.64zM472.558 194.34v-41.18h5.22v41.18h-5.22zM504.167 194.63c-2.899 0-5.539-.589-7.917-1.769-2.378-1.179-4.418-2.745-6.119-4.698-1.701-1.952-3.016-4.186-3.943-6.699a22.08 22.08 0 0 1-1.393-7.714c0-2.745.493-5.374 1.479-7.888.985-2.513 2.349-4.736 4.089-6.67a19.678 19.678 0 0 1 6.177-4.611c2.378-1.14 4.959-1.711 7.743-1.711 2.9 0 5.529.609 7.888 1.827a20.206 20.206 0 0 1 6.09 4.785 21.792 21.792 0 0 1 3.944 6.699 21.715 21.715 0 0 1 1.393 7.627c0 2.746-.493 5.375-1.479 7.888-.986 2.514-2.34 4.727-4.06 6.641a19.554 19.554 0 0 1-6.148 4.582c-2.379 1.141-4.96 1.711-7.744 1.711zm-14.094-20.88c0 2.088.338 4.109 1.015 6.061.677 1.953 1.634 3.683 2.871 5.191a13.9 13.9 0 0 0 4.466 3.596c1.74.89 3.674 1.334 5.801 1.334 2.204 0 4.176-.473 5.916-1.421a14.45 14.45 0 0 0 4.437-3.712 16.57 16.57 0 0 0 2.784-5.191c.638-1.933.957-3.886.957-5.858a18.4 18.4 0 0 0-1.015-6.061c-.678-1.952-1.645-3.673-2.9-5.162a14.542 14.542 0 0 0-4.466-3.567c-1.722-.889-3.625-1.334-5.713-1.334-2.204 0-4.177.464-5.916 1.392-1.74.928-3.22 2.146-4.438 3.654s-2.156 3.229-2.813 5.162a18.249 18.249 0 0 0-.986 5.916zM535.893 162.904v31.436h-5.221v-41.18h4.061l25.52 32.074v-32.016h5.221v41.122h-4.408l-25.173-31.436zM599.344 161.802c-.464-.541-1.083-1.063-1.856-1.566a16.615 16.615 0 0 0-2.609-1.363 18.46 18.46 0 0 0-3.161-.986 16.565 16.565 0 0 0-3.567-.377c-3.21 0-5.559.6-7.047 1.798-1.489 1.199-2.233 2.842-2.233 4.93 0 1.122.213 2.05.639 2.784.425.735 1.092 1.363 2.001 1.885.908.522 2.039.977 3.393 1.363 1.354.387 2.958.793 4.814 1.218 2.126.464 4.05.996 5.771 1.595 1.721.6 3.19 1.344 4.408 2.233 1.218.89 2.146 1.972 2.784 3.248s.957 2.842.957 4.698c0 1.972-.387 3.683-1.16 5.133a10.293 10.293 0 0 1-3.161 3.596c-1.334.948-2.91 1.644-4.727 2.088-1.818.444-3.79.667-5.916.667-3.171 0-6.178-.493-9.02-1.479a25.201 25.201 0 0 1-7.743-4.321l2.494-4.408c.618.658 1.421 1.315 2.407 1.972.986.658 2.107 1.247 3.364 1.769 1.256.522 2.609.948 4.06 1.276 1.45.329 2.967.493 4.553.493 2.938 0 5.221-.522 6.845-1.566s2.436-2.61 2.436-4.698c0-1.16-.261-2.136-.783-2.929-.521-.792-1.285-1.479-2.291-2.059s-2.253-1.092-3.74-1.537a107.36 107.36 0 0 0-5.075-1.363c-2.088-.502-3.925-1.044-5.51-1.624-1.586-.58-2.91-1.276-3.974-2.088-1.063-.812-1.866-1.798-2.407-2.958-.542-1.16-.812-2.552-.812-4.176 0-1.972.367-3.712 1.102-5.22.734-1.508 1.76-2.784 3.074-3.828s2.88-1.827 4.698-2.349c1.817-.522 3.789-.783 5.916-.783 2.784 0 5.297.426 7.54 1.276 2.242.851 4.233 1.992 5.974 3.422l-2.438 4.234z"/></g></svg>
