<?xml version="1.0" encoding="UTF-8"?>
<svg width="308px" height="60px" viewBox="0 0 308 60" version="1.1" xmlns="http://www.w3.org/2000/svg" xmlns:xlink="http://www.w3.org/1999/xlink">
    <!-- Generator: Sketch 52.2 (67145) - http://www.bohemiancoding.com/sketch -->
    <title>topUPWORK</title>
    <desc>Created with Sketch.</desc>
    <g id="Page-1" stroke="none" stroke-width="1" fill="none" fill-rule="evenodd">
        <g id="main-screen" transform="translate(-225.000000, -198.000000)">
            <g id="Group-4" transform="translate(201.000000, 198.000000)">
                <g id="Group-3">
                    <g id="topUPWORK" transform="translate(24.000000, 0.000000)">
                        <path d="M60,0 L60,29.1 C60,33.3 58.2,37.5 54.9,40.2 L34.8,58.2 C32.1,60.6 28.2,60.6 25.5,58.2 L5.4,40.2 C1.8,37.5 0,33.3 0,29.1 L0,0 L60,0 Z" id="Path" fill="#00B5F5"></path>
                        <path d="M42.2747462,35.7502419 C42.2747462,36.3524614 41.6636301,36.6535712 41.3580721,36.3524614 L18.7467788,36.3524614 C18.4412208,36.3524614 17.8301048,36.0513516 17.8301048,35.7502419 L17.8301048,34.244693 C17.8301048,33.6424734 18.4412208,33.3413637 18.7467788,33.3413637 L41.0525141,33.3413637 C41.6636301,33.3413637 41.9691882,33.6424734 41.9691882,33.9435832 L41.9691882,35.7502419 L42.2747462,35.7502419 Z M46.5525584,16.7803261 C46.2470004,16.7803261 45.6358844,16.7803261 45.3303264,16.7803261 L37.0802599,21.8991923 L30.9690995,13.1670088 C30.3579835,12.865899 29.7468674,12.865899 29.1357514,13.1670088 L23.0245911,21.8991923 L14.7745246,16.7803261 C14.4689666,16.4792163 13.8578505,16.4792163 13.5522925,16.7803261 C13.2467345,16.7803261 12.9411765,17.0814359 12.9411765,17.3825456 L17.5245467,30.9324855 C17.8301048,31.2335953 18.1356628,31.534705 18.4412208,31.2335953 L41.3580721,31.2335953 C41.6636301,31.2335953 42.2747462,31.2335953 42.2747462,30.9324855 L46.8581164,17.3825456 C47.1636745,17.0814359 47.1636745,16.7803261 46.5525584,16.7803261 Z" id="Forma_1" fill="#FFFFFF" fill-rule="nonzero"></path>
                        <path d="M96.4705882,21.313814 L104.593277,21.313814 L104.593277,41.74024 L110.610084,41.74024 L110.610084,21.313814 L118.732773,21.313814 L118.732773,15.6064302 L96.4705882,15.6064302 L96.4705882,21.313814 Z M120.537815,28.8235294 C120.236975,36.0328562 125.952941,42.0406286 133.47395,42.3410172 C134.07563,42.3410172 134.376471,42.3410172 134.978151,42.3410172 C142.49916,42.6414058 148.816807,37.2344107 149.117647,29.7246953 C149.117647,29.4243066 149.117647,29.123918 149.117647,28.8235294 C149.418487,21.6142026 143.702521,15.6064302 136.181513,15.3060416 C135.579832,15.3060416 135.278992,15.3060416 134.677311,15.3060416 C127.156303,15.005653 120.838655,20.4126481 120.537815,27.9223636 C120.537815,28.2227522 120.537815,28.5231408 120.537815,28.8235294 Z M126.855462,28.8235294 C126.855462,24.6180888 130.164706,21.0134254 134.376471,20.7130367 C138.588235,20.7130367 142.198319,24.0173115 142.49916,28.2227522 C142.49916,28.5231408 142.49916,28.5231408 142.49916,28.8235294 C142.8,32.7285814 139.791597,36.3332449 135.880672,36.6336335 C135.579832,36.6336335 135.278992,36.6336335 134.978151,36.6336335 C130.465546,36.6336335 126.855462,33.3293587 126.855462,28.8235294 C126.855462,28.8235294 126.855462,28.8235294 126.855462,28.8235294 Z M159.947899,42.0406286 L159.947899,33.0289701 C160.85042,33.0289701 162.053782,33.0289701 162.956303,33.0289701 C168.070588,33.6297473 172.282353,29.7246953 172.884034,24.9184774 C172.884034,24.6180888 172.884034,24.6180888 172.884034,24.3177001 C172.884034,19.8118709 170.176471,15.6064302 162.053782,15.6064302 C159.947899,15.6064302 155.435294,15.6064302 153.931092,15.6064302 L153.931092,41.74024 L159.947899,41.74024 L159.947899,42.0406286 Z M162.655462,21.313814 C164.159664,21.0134254 165.964706,21.9145912 166.265546,23.4165343 C166.265546,23.7169229 166.265546,24.0173115 166.265546,24.3177001 C166.265546,26.1200319 165.062185,27.6219749 163.257143,27.6219749 C162.956303,27.6219749 162.956303,27.6219749 162.655462,27.6219749 C161.752941,27.6219749 160.85042,27.6219749 159.947899,27.3215863 L159.947899,21.313814 C161.151261,21.313814 161.752941,21.313814 162.655462,21.313814 Z M191.536134,42.0406286 L191.536134,33.0289701 L193.642017,33.0289701 L200.260504,42.0406286 L207.781513,42.0406286 L199.959664,31.8274156 C202.968067,30.3254725 204.773109,27.3215863 204.472269,24.3177001 C204.472269,19.5114823 201.764706,15.9068189 194.544538,15.9068189 C193.642017,15.9068189 187.023529,15.9068189 185.519328,15.9068189 L185.519328,42.0406286 L191.536134,42.0406286 Z M194.243697,21.313814 C197.252101,21.313814 197.853782,22.8157571 197.853782,24.3177001 C197.853782,26.4204205 196.048739,27.3215863 193.642017,27.3215863 L191.536134,27.3215863 L191.536134,21.313814 C192.739496,21.313814 193.341176,21.313814 194.243697,21.313814 Z M207.781513,42.0406286 L213.798319,42.0406286 L215.904202,36.6336335 L226.433613,36.6336335 L228.539496,42.0406286 L235.157983,42.0406286 L224.026891,15.9068189 L218.611765,15.9068189 L207.781513,42.0406286 Z M221.319328,23.4165343 L224.327731,30.9262497 L218.310924,30.9262497 L221.319328,23.4165343 Z M235.759664,21.313814 L243.882353,21.313814 L243.882353,41.74024 L249.89916,41.74024 L249.89916,21.313814 L258.021849,21.313814 L258.021849,15.6064302 L235.759664,15.6064302 L235.759664,21.313814 Z M261.631933,42.0406286 L277.877311,42.0406286 L277.877311,36.3332449 L267.648739,36.3332449 L267.648739,31.527027 L276.373109,31.527027 L276.373109,25.8196432 L267.648739,25.8196432 L267.648739,21.313814 L277.27563,21.313814 L277.27563,15.6064302 L261.331092,15.6064302 L261.631933,42.0406286 Z M283.593277,42.0406286 L284.194958,42.0406286 C286.902521,42.0406286 290.211765,42.0406286 291.715966,42.0406286 C301.944538,42.0406286 307.058824,36.0328562 307.058824,28.5231408 C307.058824,21.6142026 302.847059,15.6064302 292.016807,15.6064302 C290.211765,15.6064302 285.398319,15.6064302 284.194958,15.6064302 L283.593277,15.6064302 L283.593277,42.0406286 Z M292.016807,21.313814 C296.830252,21.313814 300.741176,24.0173115 300.741176,28.8235294 C300.741176,33.9301359 297.431933,36.6336335 292.016807,36.6336335 C291.415126,36.6336335 290.512605,36.6336335 289.910924,36.6336335 L289.910924,21.313814 C290.512605,21.313814 291.114286,21.313814 292.016807,21.313814 Z" id="TOP_RATED" fill="#00B5F5" fill-rule="nonzero"></path>
                    </g>
                </g>
            </g>
        </g>
    </g>
</svg>