<svg width="308" height="60" xmlns="http://www.w3.org/2000/svg"><g fill="none" fill-rule="evenodd"><path d="M60 0v29.1c0 4.2-1.8 8.4-5.1 11.1l-20.1 18c-2.7 2.4-6.6 2.4-9.3 0l-20.1-18C1.8 37.5 0 33.3 0 29.1V0h60z" fill="#00B5F5"/><path d="M42.275 35.75c0 .602-.611.904-.917.602H18.747c-.306 0-.917-.3-.917-.602v-1.505c0-.603.611-.904.917-.904h22.306c.61 0 .916.301.916.603v1.806h.306zm4.278-18.97H45.33l-8.25 5.12-6.11-8.733a1.973 1.973 0 00-1.834 0l-6.111 8.732-8.25-5.119c-.306-.3-.917-.3-1.223 0-.305 0-.61.301-.61.603l4.583 13.55c.305.3.61.602.916.3h22.917c.306 0 .917 0 .917-.3l4.583-13.55c.306-.302.306-.603-.305-.603z" fill="#FFF" fill-rule="nonzero"/><path d="M96.47 21.314h8.123V41.74h6.017V21.314h8.123v-5.708H96.47v5.708zm24.068 7.51c-.301 7.209 5.415 13.217 12.936 13.517h1.504c7.521.3 13.839-5.107 14.14-12.616v-.901c.3-7.21-5.415-13.218-12.936-13.518h-1.505c-7.52-.3-13.838 5.107-14.14 12.616v.902zm6.317 0c0-4.206 3.31-7.81 7.521-8.111 4.212 0 7.822 3.304 8.123 7.51v.6c.301 3.906-2.707 7.51-6.618 7.81h-.903c-4.512 0-8.123-3.304-8.123-7.81zm33.093 13.217v-9.012h3.008c5.115.6 9.326-3.304 9.928-8.11v-.601c0-4.506-2.708-8.712-10.83-8.712h-8.123V41.74h6.017v.3zm2.707-20.727c1.505-.3 3.31.6 3.61 2.103v.9c0 1.803-1.203 3.305-3.008 3.305h-.602c-.902 0-1.805 0-2.707-.3v-6.008h2.707zm28.881 20.727v-9.012h2.106l6.619 9.012h7.52l-7.821-10.214c3.008-1.502 4.813-4.505 4.512-7.51 0-4.806-2.707-8.41-9.927-8.41h-9.026V42.04h6.017zm2.708-20.727c3.008 0 3.61 1.502 3.61 3.004 0 2.102-1.805 3.004-4.212 3.004h-2.106v-6.008h2.708zm13.538 20.727h6.016l2.106-5.407h10.53l2.105 5.407h6.619l-11.131-26.134h-5.415l-10.83 26.134zm13.537-18.624l3.009 7.51h-6.017l3.008-7.51zm14.44-2.103h8.123V41.74h6.017V21.314h8.123v-5.708H235.76v5.708zm25.873 20.727h16.245v-5.708H267.65v-4.806h8.724V25.82h-8.724v-4.506h9.627v-5.708H261.33l.3 26.435zm21.961 0h8.123c10.229 0 15.343-6.008 15.343-13.518 0-6.909-4.212-12.917-15.042-12.917h-8.424v26.435zm8.424-20.727c4.813 0 8.724 2.703 8.724 7.51 0 5.106-3.31 7.81-8.724 7.81h-2.106v-15.32h2.106z" fill="#00B5F5" fill-rule="nonzero"/></g></svg>